<svg xmlns="http://www.w3.org/2000/svg" version="1.1" xmlns:xlink="http://www.w3.org/1999/xlink" width="1000" height="1000"><g clip-path="url(#SvgjsClipPath2104)"><rect width="1000" height="1000" fill="#ffffff"></rect><g transform="matrix(14.583333333333334,0,0,14.583333333333334,150,150)"><svg xmlns="http://www.w3.org/2000/svg" version="1.1" xmlns:xlink="http://www.w3.org/1999/xlink" width="48" height="48"><svg xmlns="http://www.w3.org/2000/svg" width="48" height="48" fill="oklab(0.55 0.05 0.12 / 0.5)" viewBox="0 0 256 256" class="text-yellow-700/50 dark:text-yellow-500/50">
	<path d="M232,80,208,96v24a96,96,0,0,1-96,96H24a8,8,0,0,1-6.25-13L104,99.52V76.89c0-28.77,23-52.75,51.74-52.89a52,52,0,0,1,50.59,38.89Z" opacity="0.2">
	</path>
	<path d="M176,68a12,12,0,1,1-12-12A12,12,0,0,1,176,68Zm64,12a8,8,0,0,1-3.56,6.66L216,100.28V120A104.11,104.11,0,0,1,112,224H24a16,16,0,0,1-12.49-26l.1-.12L96,96.63V76.89C96,43.47,122.79,16.16,155.71,16H156a60,60,0,0,1,57.21,41.86l23.23,15.48A8,8,0,0,1,240,80Zm-22.42,0L201.9,69.54a8,8,0,0,1-3.31-4.64A44,44,0,0,0,156,32h-.22C131.64,32.12,112,52.25,112,76.89V99.52a8,8,0,0,1-1.85,5.13L24,208h26.9l70.94-85.12a8,8,0,1,1,12.29,10.24L71.75,208H112a88.1,88.1,0,0,0,88-88V96a8,8,0,0,1,3.56-6.66Z">
	</path>
</svg></svg></g></g><defs><clipPath id="SvgjsClipPath2104"><rect width="1000" height="1000" x="0" y="0" rx="500" ry="500"></rect></clipPath></defs></svg>